<?xml version="1.0" standalone="no"?>
<!DOCTYPE svg PUBLIC "-//W3C//DTD SVG 20010904//EN"
 "http://www.w3.org/TR/2001/REC-SVG-20010904/DTD/svg10.dtd">
<svg version="1.0" xmlns="http://www.w3.org/2000/svg"
 width="350.000000pt" height="350.000000pt" viewBox="0 0 350.000000 350.000000"
 preserveAspectRatio="xMidYMid meet">
<metadata>
Created by potrace 1.11, written by Peter Selinger 2001-2013
</metadata>
<g transform="translate(0.000000,350.000000) scale(0.100000,-0.100000)"
fill="#000000" stroke="none">
<path d="M1382 3058 c-8 -8 -12 -58 -12 -159 l0 -146 -42 -29 c-24 -16 -47
-32 -53 -37 -82 -62 -100 -80 -105 -99 -3 -13 -5 -155 -5 -315 l1 -293 -41 0
-40 0 1 130 c2 134 -2 144 -38 116 -15 -11 -18 -30 -18 -130 l0 -116 -31 0
c-25 0 -30 4 -29 23 1 12 2 46 1 75 -1 51 -2 52 -23 41 -32 -17 -34 -22 -32
-79 2 -45 -1 -52 -20 -60 -17 -6 -44 -58 -113 -212 -50 -111 -114 -254 -142
-316 l-50 -112 32 -13 c18 -8 58 -24 90 -37 55 -23 57 -25 57 -61 0 -34 2 -37
33 -40 53 -6 89 1 83 16 -4 11 4 10 40 -3 41 -15 44 -19 44 -54 0 -21 3 -38 8
-39 46 -6 107 -1 104 9 -3 15 3 15 45 0 18 -7 34 -17 35 -23 3 -22 6 -51 7
-75 0 -14 18 -49 39 -78 l37 -51 96 -1 c84 0 97 2 101 18 2 9 3 76 3 148 l-1
132 74 37 c40 21 77 34 81 29 4 -5 18 -41 31 -80 l23 -70 170 2 c94 2 173 7
176 11 4 4 17 40 30 80 l23 71 78 -39 77 -39 -1 -150 -1 -150 100 0 100 0 40
56 c30 42 40 67 41 98 1 22 2 44 3 48 1 9 56 38 71 38 6 0 8 -4 5 -10 -7 -11
-6 -11 53 -14 55 -2 66 5 60 43 -4 27 -1 32 34 46 47 18 58 19 58 3 0 -9 13
-12 37 -11 21 1 46 2 56 2 13 1 17 10 17 39 l0 37 88 37 c99 42 97 35 47 142
-37 81 -45 97 -149 331 -92 206 -88 198 -112 205 -17 4 -20 13 -19 59 2 42 -2
57 -18 72 -37 34 -39 32 -39 -73 0 -57 -1 -58 -29 -58 l-29 0 1 83 c2 150 2
151 -29 169 l-27 16 0 -131 0 -132 -37 -3 c-21 -2 -38 0 -39 5 0 4 -1 145 -2
313 l-2 305 -60 45 c-34 25 -73 54 -89 65 -54 38 -53 35 -53 185 0 115 -3 144
-16 157 -18 19 -45 11 -55 -16 -4 -11 -7 -362 -6 -780 l1 -761 -30 19 c-24 15
-30 26 -31 57 -1 22 -24 111 -50 199 -27 88 -52 174 -56 190 -5 17 -28 97 -53
179 -55 183 -77 211 -160 211 -93 0 -107 -19 -171 -235 -120 -407 -157 -543
-153 -561 5 -19 -24 -49 -48 -49 -8 0 -10 228 -10 763 1 658 -1 764 -13 780
-18 20 -33 22 -50 5z"/>
<path d="M795 1018 c9 -183 21 -255 41 -236 9 10 23 138 27 261 l3 117 -39 0
-40 0 8 -142z"/>
<path d="M2790 1043 c0 -109 14 -250 25 -262 19 -18 33 60 41 232 l7 147 -37
0 -36 0 0 -117z"/>
<path d="M995 938 c9 -182 21 -255 40 -236 11 11 24 134 28 256 l3 122 -39 0
-40 0 8 -142z"/>
<path d="M2590 958 c0 -117 12 -244 24 -256 20 -19 33 55 42 230 l7 148 -37 0
-36 0 0 -122z"/>
<path d="M1305 728 c9 -182 21 -255 40 -236 11 11 24 134 28 256 l3 122 -39 0
-40 0 8 -142z"/>
<path d="M2280 748 c0 -117 12 -244 24 -256 20 -19 33 55 42 230 l7 148 -37 0
-36 0 0 -122z"/>
</g>
</svg>
